<?xml version="1.0"?>
<svg width="350" height="240" xmlns="http://www.w3.org/2000/svg" preserveAspectRatio="xMidYMid meet">
  <g transform="translate(0,512) scale(0.10000000149011612,-0.10000000149011612) " fill="#000000">
   <path d="m654,5096c-56,-25 -67,-65 -89,-317c-15,-183 -10,-315 24,-569l20,-145l-38,-60c-61,-96 -98,-214 -103,-328l-2,-49l-207,7l-207,8l-7,-122c-5,-84 -4,-125 4,-135c8,-10 68,-15 238,-20c178,-6 231,-10 243,-22c12,-12 12,-16 0,-28c-8,-7 -113,-46 -232,-86c-120,-39 -220,-75 -222,-79c-3,-3 13,-61 35,-128l40,-122l42,13c23,8 151,51 284,96l243,82l57,-49c180,-155 378,-243 663,-295c97,-18 154,-22 355,-22c259,0 348,12 525,70c128,42 308,137 395,208c53,43 89,65 107,66c14,0 138,-38 274,-85c136,-47 249,-83 252,-81c8,9 80,241 76,248c-2,3 -101,39 -219,78c-118,39 -215,73 -215,75c0,2 5,15 11,28c11,25 12,25 208,31c108,4 209,9 224,12l28,6l-6,106c-3,59 -8,118 -11,131l-5,24l-185,-6l-184,-6l0,50c0,59 -25,176 -51,236c-10,24 -36,70 -59,103c-46,68 -48,79 -23,242c25,168 25,593 0,701c-41,173 -120,186 -321,53c-71,-48 -139,-108 -348,-308l-177,-169l-113,10c-148,14 -349,14 -461,0l-89,-12l-131,134c-242,247 -499,439 -587,438c-14,0 -39,-6 -56,-13zm613,-1232c106,-61 110,-230 6,-300c-99,-67 -241,-15 -274,100c-24,88 12,165 100,211c55,28 104,25 168,-11zm1169,15c17,-5 44,-24 61,-42c74,-78 65,-197 -22,-262c-128,-98 -295,-6 -283,155c5,72 30,108 100,143c54,27 73,28 144,6z"/>
  </g>
</svg>
